<?xml version="1.0" encoding="UTF-8" standalone="no"?>
<!DOCTYPE svg PUBLIC "-//W3C//DTD SVG 1.1//EN"
 "http://www.w3.org/Graphics/SVG/1.1/DTD/svg11.dtd">
<!-- Generated by graphviz version 2.43.20190912.0211 (20190912.0211)
 -->
<!-- Title: MUX Pages: 1 -->
<svg width="582pt" height="197pt"
 viewBox="0.00 0.00 582.00 196.50" xmlns="http://www.w3.org/2000/svg" xmlns:xlink="http://www.w3.org/1999/xlink">
<g id="graph0" class="graph" transform="scale(1 1) rotate(0) translate(4 192.5)">
<title>MUX</title>
<polygon fill="white" stroke="transparent" points="-4,4 -4,-192.5 578,-192.5 578,4 -4,4"/>
<text text-anchor="middle" x="287" y="-7.8" font-family="Times,serif" font-size="14.00">MUX</text>
<!-- n4 -->
<g id="node1" class="node">
<title>n4</title>
<polygon fill="none" stroke="black" points="54,-163.04 54,-177.96 38.18,-188.5 15.82,-188.5 0,-177.96 0,-163.04 15.82,-152.5 38.18,-152.5 54,-163.04"/>
<text text-anchor="middle" x="27" y="-166.8" font-family="Times,serif" font-size="14.00">A</text>
</g>
<!-- c9 -->
<g id="node5" class="node">
<title>c9</title>
<polygon fill="none" stroke="black" points="112.5,-135.5 112.5,-181.5 207.5,-181.5 207.5,-135.5 112.5,-135.5"/>
<text text-anchor="middle" x="124.5" y="-166.3" font-family="Times,serif" font-size="14.00">A</text>
<polyline fill="none" stroke="black" points="112.5,-158.5 136.5,-158.5 "/>
<text text-anchor="middle" x="124.5" y="-143.3" font-family="Times,serif" font-size="14.00">B</text>
<polyline fill="none" stroke="black" points="136.5,-135.5 136.5,-181.5 "/>
<text text-anchor="middle" x="160" y="-162.3" font-family="Times,serif" font-size="14.00">$1</text>
<text text-anchor="middle" x="160" y="-147.3" font-family="Times,serif" font-size="14.00">$and</text>
<polyline fill="none" stroke="black" points="183.5,-135.5 183.5,-181.5 "/>
<text text-anchor="middle" x="195.5" y="-154.8" font-family="Times,serif" font-size="14.00">Y</text>
</g>
<!-- n4&#45;&gt;c9 -->
<g id="edge4" class="edge">
<title>n4:e&#45;&gt;c9:w</title>
<path fill="none" stroke="black" d="M54,-170.5C75.57,-170.5 83.37,-170.5 100.85,-170.5"/>
<polygon fill="black" stroke="black" points="101,-174 111,-170.5 101,-167 101,-174"/>
</g>
<!-- n5 -->
<g id="node2" class="node">
<title>n5</title>
<polygon fill="none" stroke="black" points="187,-91.04 187,-105.96 171.18,-116.5 148.82,-116.5 133,-105.96 133,-91.04 148.82,-80.5 171.18,-80.5 187,-91.04"/>
<text text-anchor="middle" x="160" y="-94.8" font-family="Times,serif" font-size="14.00">B</text>
</g>
<!-- c10 -->
<g id="node6" class="node">
<title>c10</title>
<polygon fill="none" stroke="black" points="266,-63.5 266,-109.5 361,-109.5 361,-63.5 266,-63.5"/>
<text text-anchor="middle" x="278" y="-94.3" font-family="Times,serif" font-size="14.00">A</text>
<polyline fill="none" stroke="black" points="266,-86.5 290,-86.5 "/>
<text text-anchor="middle" x="278" y="-71.3" font-family="Times,serif" font-size="14.00">B</text>
<polyline fill="none" stroke="black" points="290,-63.5 290,-109.5 "/>
<text text-anchor="middle" x="313.5" y="-90.3" font-family="Times,serif" font-size="14.00">$3</text>
<text text-anchor="middle" x="313.5" y="-75.3" font-family="Times,serif" font-size="14.00">$and</text>
<polyline fill="none" stroke="black" points="337,-63.5 337,-109.5 "/>
<text text-anchor="middle" x="349" y="-82.8" font-family="Times,serif" font-size="14.00">Y</text>
</g>
<!-- n5&#45;&gt;c10 -->
<g id="edge5" class="edge">
<title>n5:e&#45;&gt;c10:w</title>
<path fill="none" stroke="black" d="M188,-98.5C219.01,-98.5 229.22,-98.5 255.84,-98.5"/>
<polygon fill="black" stroke="black" points="256,-102 266,-98.5 256,-95 256,-102"/>
</g>
<!-- n6 -->
<g id="node3" class="node">
<title>n6</title>
<polygon fill="none" stroke="black" points="574,-110.04 574,-124.96 558.18,-135.5 535.82,-135.5 520,-124.96 520,-110.04 535.82,-99.5 558.18,-99.5 574,-110.04"/>
<text text-anchor="middle" x="547" y="-113.8" font-family="Times,serif" font-size="14.00">O</text>
</g>
<!-- n7 -->
<g id="node4" class="node">
<title>n7</title>
<polygon fill="none" stroke="black" points="54,-72.04 54,-86.96 38.18,-97.5 15.82,-97.5 0,-86.96 0,-72.04 15.82,-61.5 38.18,-61.5 54,-72.04"/>
<text text-anchor="middle" x="27" y="-75.8" font-family="Times,serif" font-size="14.00">S</text>
</g>
<!-- n7&#45;&gt;c9 -->
<g id="edge8" class="edge">
<title>n7:e&#45;&gt;c9:w</title>
<path fill="none" stroke="black" d="M54,-79.5C89.28,-79.5 75.47,-134.05 101.16,-144.71"/>
<polygon fill="black" stroke="black" points="100.53,-148.15 111,-146.5 101.79,-141.27 100.53,-148.15"/>
</g>
<!-- c11 -->
<g id="node7" class="node">
<title>c11</title>
<polygon fill="none" stroke="black" points="90,-23.5 90,-61.5 230,-61.5 230,-23.5 90,-23.5"/>
<text text-anchor="middle" x="102" y="-38.8" font-family="Times,serif" font-size="14.00">A</text>
<polyline fill="none" stroke="black" points="114,-23.5 114,-61.5 "/>
<text text-anchor="middle" x="160" y="-46.3" font-family="Times,serif" font-size="14.00">$2</text>
<text text-anchor="middle" x="160" y="-31.3" font-family="Times,serif" font-size="14.00">$logic_not</text>
<polyline fill="none" stroke="black" points="206,-23.5 206,-61.5 "/>
<text text-anchor="middle" x="218" y="-38.8" font-family="Times,serif" font-size="14.00">Y</text>
</g>
<!-- n7&#45;&gt;c11 -->
<g id="edge7" class="edge">
<title>n7:e&#45;&gt;c11:w</title>
<path fill="none" stroke="black" d="M54,-79.5C72.82,-79.5 69.55,-54.6 80.43,-45.65"/>
<polygon fill="black" stroke="black" points="81.6,-48.96 90,-42.5 79.41,-42.31 81.6,-48.96"/>
</g>
<!-- c12 -->
<g id="node8" class="node">
<title>c12</title>
<polygon fill="none" stroke="black" points="397,-94.5 397,-140.5 484,-140.5 484,-94.5 397,-94.5"/>
<text text-anchor="middle" x="409" y="-125.3" font-family="Times,serif" font-size="14.00">A</text>
<polyline fill="none" stroke="black" points="397,-117.5 421,-117.5 "/>
<text text-anchor="middle" x="409" y="-102.3" font-family="Times,serif" font-size="14.00">B</text>
<polyline fill="none" stroke="black" points="421,-94.5 421,-140.5 "/>
<text text-anchor="middle" x="440.5" y="-121.3" font-family="Times,serif" font-size="14.00">$4</text>
<text text-anchor="middle" x="440.5" y="-106.3" font-family="Times,serif" font-size="14.00">$or</text>
<polyline fill="none" stroke="black" points="460,-94.5 460,-140.5 "/>
<text text-anchor="middle" x="472" y="-113.8" font-family="Times,serif" font-size="14.00">Y</text>
</g>
<!-- c9&#45;&gt;c12 -->
<g id="edge1" class="edge">
<title>c9:e&#45;&gt;c12:w</title>
<path fill="none" stroke="black" d="M209,-158.5C290.08,-158.5 310.79,-131.83 386.92,-129.64"/>
<polygon fill="black" stroke="black" points="387.05,-133.14 397,-129.5 386.95,-126.14 387.05,-133.14"/>
</g>
<!-- c10&#45;&gt;c12 -->
<g id="edge2" class="edge">
<title>c10:e&#45;&gt;c12:w</title>
<path fill="none" stroke="black" d="M361,-86.5C374.99,-86.5 378.05,-97.87 387.09,-103.02"/>
<polygon fill="black" stroke="black" points="386.45,-106.46 397,-105.5 388.15,-99.67 386.45,-106.46"/>
</g>
<!-- c11&#45;&gt;c10 -->
<g id="edge3" class="edge">
<title>c11:e&#45;&gt;c10:w</title>
<path fill="none" stroke="black" d="M230,-42.5C247.23,-42.5 246.18,-63.22 256.27,-71.31"/>
<polygon fill="black" stroke="black" points="255.41,-74.72 266,-74.5 257.58,-68.06 255.41,-74.72"/>
</g>
<!-- c12&#45;&gt;n6 -->
<g id="edge6" class="edge">
<title>c12:e&#45;&gt;n6:w</title>
<path fill="none" stroke="black" d="M484,-117.5C496,-117.5 501.25,-117.5 509.88,-117.5"/>
<polygon fill="black" stroke="black" points="510,-121 520,-117.5 510,-114 510,-121"/>
</g>
</g>
</svg>
