<?xml version="1.0" encoding="UTF-8" standalone="no"?>
<!DOCTYPE svg PUBLIC "-//W3C//DTD SVG 1.1//EN"
 "http://www.w3.org/Graphics/SVG/1.1/DTD/svg11.dtd">
<!-- Generated by graphviz version 2.43.20190912.0211 (20190912.0211)
 -->
<!-- Title: MUX Pages: 1 -->
<svg width="1698pt" height="562pt"
 viewBox="0.00 0.00 1697.74 561.50" xmlns="http://www.w3.org/2000/svg" xmlns:xlink="http://www.w3.org/1999/xlink">
<g id="graph0" class="graph" transform="scale(1 1) rotate(0) translate(4 557.5)">
<title>MUX</title>
<polygon fill="white" stroke="transparent" points="-4,4 -4,-557.5 1693.74,-557.5 1693.74,4 -4,4"/>
<text text-anchor="middle" x="844.87" y="-7.8" font-family="Times,serif" font-size="14.00">MUX</text>
<!-- n7 -->
<g id="node1" class="node">
<title>n7</title>
<polygon fill="none" stroke="black" points="1689.68,-191.04 1689.68,-205.96 1673.65,-216.5 1650.97,-216.5 1634.94,-205.96 1634.94,-191.04 1650.97,-180.5 1673.65,-180.5 1689.68,-191.04"/>
<text text-anchor="middle" x="1662.31" y="-194.8" font-family="Times,serif" font-size="14.00">O_t</text>
</g>
<!-- n16 -->
<g id="node2" class="node">
<title>n16</title>
<polygon fill="none" stroke="black" points="360.24,-174.04 360.24,-188.96 344.21,-199.5 321.53,-199.5 305.5,-188.96 305.5,-174.04 321.53,-163.5 344.21,-163.5 360.24,-174.04"/>
<text text-anchor="middle" x="332.87" y="-177.8" font-family="Times,serif" font-size="14.00">B_t</text>
</g>
<!-- c43 -->
<g id="node18" class="node">
<title>c43</title>
<polygon fill="none" stroke="black" points="438.87,-105.5 438.87,-151.5 570.87,-151.5 570.87,-105.5 438.87,-105.5"/>
<text text-anchor="middle" x="450.87" y="-136.3" font-family="Times,serif" font-size="14.00">A</text>
<polyline fill="none" stroke="black" points="438.87,-128.5 462.87,-128.5 "/>
<text text-anchor="middle" x="450.87" y="-113.3" font-family="Times,serif" font-size="14.00">B</text>
<polyline fill="none" stroke="black" points="462.87,-105.5 462.87,-151.5 "/>
<text text-anchor="middle" x="504.87" y="-132.3" font-family="Times,serif" font-size="14.00">$84_t_1_5</text>
<text text-anchor="middle" x="504.87" y="-117.3" font-family="Times,serif" font-size="14.00">$and</text>
<polyline fill="none" stroke="black" points="546.87,-105.5 546.87,-151.5 "/>
<text text-anchor="middle" x="558.87" y="-124.8" font-family="Times,serif" font-size="14.00">Y</text>
</g>
<!-- n16&#45;&gt;c43 -->
<g id="edge12" class="edge">
<title>n16:e&#45;&gt;c43:w</title>
<path fill="none" stroke="black" d="M360.87,-181.5C395.86,-181.5 398.83,-148.12 427.57,-141.6"/>
<polygon fill="black" stroke="black" points="428.3,-145.04 437.87,-140.5 427.56,-138.08 428.3,-145.04"/>
</g>
<!-- c44 -->
<g id="node19" class="node">
<title>c44</title>
<polygon fill="none" stroke="black" points="438.87,-170.5 438.87,-216.5 570.87,-216.5 570.87,-170.5 438.87,-170.5"/>
<text text-anchor="middle" x="450.87" y="-201.3" font-family="Times,serif" font-size="14.00">A</text>
<polyline fill="none" stroke="black" points="438.87,-193.5 462.87,-193.5 "/>
<text text-anchor="middle" x="450.87" y="-178.3" font-family="Times,serif" font-size="14.00">B</text>
<polyline fill="none" stroke="black" points="462.87,-170.5 462.87,-216.5 "/>
<text text-anchor="middle" x="504.87" y="-197.3" font-family="Times,serif" font-size="14.00">$84_t_1_4</text>
<text text-anchor="middle" x="504.87" y="-182.3" font-family="Times,serif" font-size="14.00">$and</text>
<polyline fill="none" stroke="black" points="546.87,-170.5 546.87,-216.5 "/>
<text text-anchor="middle" x="558.87" y="-189.8" font-family="Times,serif" font-size="14.00">Y</text>
</g>
<!-- n16&#45;&gt;c44 -->
<g id="edge13" class="edge">
<title>n16:e&#45;&gt;c44:w</title>
<path fill="none" stroke="black" d="M360.87,-181.5C391.49,-181.5 401.56,-181.5 427.84,-181.5"/>
<polygon fill="black" stroke="black" points="427.87,-185 437.87,-181.5 427.87,-178 427.87,-185"/>
</g>
<!-- n24 -->
<g id="node3" class="node">
<title>n24</title>
<polygon fill="none" stroke="black" points="54.81,-157.04 54.81,-171.96 38.77,-182.5 16.1,-182.5 0.06,-171.96 0.06,-157.04 16.1,-146.5 38.77,-146.5 54.81,-157.04"/>
<text text-anchor="middle" x="27.44" y="-160.8" font-family="Times,serif" font-size="14.00">S_t</text>
</g>
<!-- c50 -->
<g id="node25" class="node">
<title>c50</title>
<polygon fill="none" stroke="black" points="94.87,-23.5 94.87,-69.5 226.87,-69.5 226.87,-23.5 94.87,-23.5"/>
<text text-anchor="middle" x="106.87" y="-54.3" font-family="Times,serif" font-size="14.00">A</text>
<polyline fill="none" stroke="black" points="94.87,-46.5 118.87,-46.5 "/>
<text text-anchor="middle" x="106.87" y="-31.3" font-family="Times,serif" font-size="14.00">B</text>
<polyline fill="none" stroke="black" points="118.87,-23.5 118.87,-69.5 "/>
<text text-anchor="middle" x="160.87" y="-50.3" font-family="Times,serif" font-size="14.00">$82_t_1_5</text>
<text text-anchor="middle" x="160.87" y="-35.3" font-family="Times,serif" font-size="14.00">$and</text>
<polyline fill="none" stroke="black" points="202.87,-23.5 202.87,-69.5 "/>
<text text-anchor="middle" x="214.87" y="-42.8" font-family="Times,serif" font-size="14.00">Y</text>
</g>
<!-- n24&#45;&gt;c50 -->
<g id="edge24" class="edge">
<title>n24:e&#45;&gt;c50:w</title>
<path fill="none" stroke="black" d="M54.87,-164.5C111.19,-164.5 43.77,-51.19 83.65,-36.14"/>
<polygon fill="black" stroke="black" points="84.55,-39.54 93.87,-34.5 83.44,-32.63 84.55,-39.54"/>
</g>
<!-- c52 -->
<g id="node27" class="node">
<title>c52</title>
<polygon fill="none" stroke="black" points="94.87,-153.5 94.87,-199.5 226.87,-199.5 226.87,-153.5 94.87,-153.5"/>
<text text-anchor="middle" x="106.87" y="-184.3" font-family="Times,serif" font-size="14.00">A</text>
<polyline fill="none" stroke="black" points="94.87,-176.5 118.87,-176.5 "/>
<text text-anchor="middle" x="106.87" y="-161.3" font-family="Times,serif" font-size="14.00">B</text>
<polyline fill="none" stroke="black" points="118.87,-153.5 118.87,-199.5 "/>
<text text-anchor="middle" x="160.87" y="-180.3" font-family="Times,serif" font-size="14.00">$82_t_1_3</text>
<text text-anchor="middle" x="160.87" y="-165.3" font-family="Times,serif" font-size="14.00">$and</text>
<polyline fill="none" stroke="black" points="202.87,-153.5 202.87,-199.5 "/>
<text text-anchor="middle" x="214.87" y="-172.8" font-family="Times,serif" font-size="14.00">Y</text>
</g>
<!-- n24&#45;&gt;c52 -->
<g id="edge25" class="edge">
<title>n24:e&#45;&gt;c52:w</title>
<path fill="none" stroke="black" d="M54.87,-164.5C68.28,-164.5 73.91,-164.5 83.79,-164.5"/>
<polygon fill="black" stroke="black" points="83.87,-168 93.87,-164.5 83.87,-161 83.87,-168"/>
</g>
<!-- x0 -->
<g id="node34" class="node">
<title>x0</title>
<path fill="none" stroke="black" d="M175.87,-254.5C175.87,-254.5 145.87,-254.5 145.87,-254.5 139.87,-254.5 133.87,-248.5 133.87,-242.5 133.87,-242.5 133.87,-230.5 133.87,-230.5 133.87,-224.5 139.87,-218.5 145.87,-218.5 145.87,-218.5 175.87,-218.5 175.87,-218.5 181.87,-218.5 187.87,-224.5 187.87,-230.5 187.87,-230.5 187.87,-242.5 187.87,-242.5 187.87,-248.5 181.87,-254.5 175.87,-254.5"/>
<text text-anchor="middle" x="160.87" y="-232.8" font-family="Times,serif" font-size="14.00">BUF</text>
</g>
<!-- n24&#45;&gt;x0 -->
<g id="edge26" class="edge">
<title>n24:e&#45;&gt;x0:w</title>
<path fill="none" stroke="black" d="M54.87,-164.5C80.14,-164.5 72.15,-191.53 90.87,-208.5 104.64,-220.98 109.02,-231.99 122.86,-235.41"/>
<polygon fill="black" stroke="black" points="122.55,-238.9 132.87,-236.5 123.31,-231.94 122.55,-238.9"/>
</g>
<!-- n25 -->
<g id="node4" class="node">
<title>n25</title>
<polygon fill="none" stroke="black" points="54.81,-72.04 54.81,-86.96 38.77,-97.5 16.1,-97.5 0.06,-86.96 0.06,-72.04 16.1,-61.5 38.77,-61.5 54.81,-72.04"/>
<text text-anchor="middle" x="27.44" y="-75.8" font-family="Times,serif" font-size="14.00">A_t</text>
</g>
<!-- n25&#45;&gt;c50 -->
<g id="edge27" class="edge">
<title>n25:e&#45;&gt;c50:w</title>
<path fill="none" stroke="black" d="M54.87,-79.5C70.56,-79.5 73.51,-66.16 84.02,-60.75"/>
<polygon fill="black" stroke="black" points="84.9,-64.14 93.87,-58.5 83.34,-57.31 84.9,-64.14"/>
</g>
<!-- c51 -->
<g id="node26" class="node">
<title>c51</title>
<polygon fill="none" stroke="black" points="94.87,-88.5 94.87,-134.5 226.87,-134.5 226.87,-88.5 94.87,-88.5"/>
<text text-anchor="middle" x="106.87" y="-119.3" font-family="Times,serif" font-size="14.00">A</text>
<polyline fill="none" stroke="black" points="94.87,-111.5 118.87,-111.5 "/>
<text text-anchor="middle" x="106.87" y="-96.3" font-family="Times,serif" font-size="14.00">B</text>
<polyline fill="none" stroke="black" points="118.87,-88.5 118.87,-134.5 "/>
<text text-anchor="middle" x="160.87" y="-115.3" font-family="Times,serif" font-size="14.00">$82_t_1_4</text>
<text text-anchor="middle" x="160.87" y="-100.3" font-family="Times,serif" font-size="14.00">$and</text>
<polyline fill="none" stroke="black" points="202.87,-88.5 202.87,-134.5 "/>
<text text-anchor="middle" x="214.87" y="-107.8" font-family="Times,serif" font-size="14.00">Y</text>
</g>
<!-- n25&#45;&gt;c51 -->
<g id="edge28" class="edge">
<title>n25:e&#45;&gt;c51:w</title>
<path fill="none" stroke="black" d="M54.87,-79.5C70.4,-79.5 73.57,-92.2 84.08,-97.36"/>
<polygon fill="black" stroke="black" points="83.36,-100.78 93.87,-99.5 84.85,-93.94 83.36,-100.78"/>
</g>
<!-- n29 -->
<g id="node5" class="node">
<title>n29</title>
<polygon fill="none" stroke="black" points="54.44,-285.04 54.44,-299.96 38.62,-310.5 16.25,-310.5 0.44,-299.96 0.44,-285.04 16.25,-274.5 38.62,-274.5 54.44,-285.04"/>
<text text-anchor="middle" x="27.44" y="-288.8" font-family="Times,serif" font-size="14.00">A</text>
</g>
<!-- n29&#45;&gt;c52 -->
<g id="edge39" class="edge">
<title>n29:e&#45;&gt;c52:w</title>
<path fill="none" stroke="black" d="M54.87,-292.5C100.19,-292.5 53.57,-204.86 83.81,-190.48"/>
<polygon fill="black" stroke="black" points="84.74,-193.87 93.87,-188.5 83.38,-187 84.74,-193.87"/>
</g>
<!-- c54 -->
<g id="node29" class="node">
<title>c54</title>
<polygon fill="none" stroke="black" points="90.87,-273.5 90.87,-311.5 230.87,-311.5 230.87,-273.5 90.87,-273.5"/>
<text text-anchor="middle" x="102.87" y="-288.8" font-family="Times,serif" font-size="14.00">A</text>
<polyline fill="none" stroke="black" points="114.87,-273.5 114.87,-311.5 "/>
<text text-anchor="middle" x="160.87" y="-296.3" font-family="Times,serif" font-size="14.00">$82_t_1_1</text>
<text text-anchor="middle" x="160.87" y="-281.3" font-family="Times,serif" font-size="14.00">$logic_not</text>
<polyline fill="none" stroke="black" points="206.87,-273.5 206.87,-311.5 "/>
<text text-anchor="middle" x="218.87" y="-288.8" font-family="Times,serif" font-size="14.00">Y</text>
</g>
<!-- n29&#45;&gt;c54 -->
<g id="edge40" class="edge">
<title>n29:e&#45;&gt;c54:w</title>
<path fill="none" stroke="black" d="M54.87,-292.5C66.87,-292.5 72.12,-292.5 80.75,-292.5"/>
<polygon fill="black" stroke="black" points="80.87,-296 90.87,-292.5 80.87,-289 80.87,-296"/>
</g>
<!-- c55 -->
<g id="node30" class="node">
<title>c55</title>
<polygon fill="none" stroke="black" points="105.87,-387.5 105.87,-433.5 215.87,-433.5 215.87,-387.5 105.87,-387.5"/>
<text text-anchor="middle" x="117.87" y="-418.3" font-family="Times,serif" font-size="14.00">A</text>
<polyline fill="none" stroke="black" points="105.87,-410.5 129.87,-410.5 "/>
<text text-anchor="middle" x="117.87" y="-395.3" font-family="Times,serif" font-size="14.00">B</text>
<polyline fill="none" stroke="black" points="129.87,-387.5 129.87,-433.5 "/>
<text text-anchor="middle" x="160.87" y="-414.3" font-family="Times,serif" font-size="14.00">$82</text>
<text text-anchor="middle" x="160.87" y="-399.3" font-family="Times,serif" font-size="14.00">$_AND_</text>
<polyline fill="none" stroke="black" points="191.87,-387.5 191.87,-433.5 "/>
<text text-anchor="middle" x="203.87" y="-406.8" font-family="Times,serif" font-size="14.00">Y</text>
</g>
<!-- n29&#45;&gt;c55 -->
<g id="edge41" class="edge">
<title>n29:e&#45;&gt;c55:w</title>
<path fill="none" stroke="black" d="M54.87,-292.5C112.91,-292.5 51.66,-406.76 94.79,-421.04"/>
<polygon fill="black" stroke="black" points="94.47,-424.53 104.87,-422.5 95.48,-417.6 94.47,-424.53"/>
</g>
<!-- n30 -->
<g id="node6" class="node">
<title>n30</title>
<polygon fill="none" stroke="black" points="359.87,-385.04 359.87,-399.96 344.06,-410.5 321.69,-410.5 305.87,-399.96 305.87,-385.04 321.69,-374.5 344.06,-374.5 359.87,-385.04"/>
<text text-anchor="middle" x="332.87" y="-388.8" font-family="Times,serif" font-size="14.00">B</text>
</g>
<!-- c45 -->
<g id="node20" class="node">
<title>c45</title>
<polygon fill="none" stroke="black" points="438.87,-235.5 438.87,-281.5 570.87,-281.5 570.87,-235.5 438.87,-235.5"/>
<text text-anchor="middle" x="450.87" y="-266.3" font-family="Times,serif" font-size="14.00">A</text>
<polyline fill="none" stroke="black" points="438.87,-258.5 462.87,-258.5 "/>
<text text-anchor="middle" x="450.87" y="-243.3" font-family="Times,serif" font-size="14.00">B</text>
<polyline fill="none" stroke="black" points="462.87,-235.5 462.87,-281.5 "/>
<text text-anchor="middle" x="504.87" y="-262.3" font-family="Times,serif" font-size="14.00">$84_t_1_3</text>
<text text-anchor="middle" x="504.87" y="-247.3" font-family="Times,serif" font-size="14.00">$and</text>
<polyline fill="none" stroke="black" points="546.87,-235.5 546.87,-281.5 "/>
<text text-anchor="middle" x="558.87" y="-254.8" font-family="Times,serif" font-size="14.00">Y</text>
</g>
<!-- n30&#45;&gt;c45 -->
<g id="edge43" class="edge">
<title>n30:e&#45;&gt;c45:w</title>
<path fill="none" stroke="black" d="M360.87,-392.5C385.72,-392.5 384.88,-372.03 398.87,-351.5 419.17,-321.7 402.06,-279.73 427.88,-271.81"/>
<polygon fill="black" stroke="black" points="428.41,-275.27 437.87,-270.5 427.5,-268.33 428.41,-275.27"/>
</g>
<!-- c47 -->
<g id="node22" class="node">
<title>c47</title>
<polygon fill="none" stroke="black" points="434.87,-422.5 434.87,-460.5 574.87,-460.5 574.87,-422.5 434.87,-422.5"/>
<text text-anchor="middle" x="446.87" y="-437.8" font-family="Times,serif" font-size="14.00">A</text>
<polyline fill="none" stroke="black" points="458.87,-422.5 458.87,-460.5 "/>
<text text-anchor="middle" x="504.87" y="-445.3" font-family="Times,serif" font-size="14.00">$84_t_1_1</text>
<text text-anchor="middle" x="504.87" y="-430.3" font-family="Times,serif" font-size="14.00">$logic_not</text>
<polyline fill="none" stroke="black" points="550.87,-422.5 550.87,-460.5 "/>
<text text-anchor="middle" x="562.87" y="-437.8" font-family="Times,serif" font-size="14.00">Y</text>
</g>
<!-- n30&#45;&gt;c47 -->
<g id="edge44" class="edge">
<title>n30:e&#45;&gt;c47:w</title>
<path fill="none" stroke="black" d="M360.87,-392.5C396.62,-392.5 395.95,-432.74 424.87,-440.29"/>
<polygon fill="black" stroke="black" points="424.52,-443.77 434.87,-441.5 425.37,-436.82 424.52,-443.77"/>
</g>
<!-- c56 -->
<g id="node31" class="node">
<title>c56</title>
<polygon fill="none" stroke="black" points="449.87,-357.5 449.87,-403.5 559.87,-403.5 559.87,-357.5 449.87,-357.5"/>
<text text-anchor="middle" x="461.87" y="-388.3" font-family="Times,serif" font-size="14.00">A</text>
<polyline fill="none" stroke="black" points="449.87,-380.5 473.87,-380.5 "/>
<text text-anchor="middle" x="461.87" y="-365.3" font-family="Times,serif" font-size="14.00">B</text>
<polyline fill="none" stroke="black" points="473.87,-357.5 473.87,-403.5 "/>
<text text-anchor="middle" x="504.87" y="-384.3" font-family="Times,serif" font-size="14.00">$84</text>
<text text-anchor="middle" x="504.87" y="-369.3" font-family="Times,serif" font-size="14.00">$_AND_</text>
<polyline fill="none" stroke="black" points="535.87,-357.5 535.87,-403.5 "/>
<text text-anchor="middle" x="547.87" y="-376.8" font-family="Times,serif" font-size="14.00">Y</text>
</g>
<!-- n30&#45;&gt;c56 -->
<g id="edge45" class="edge">
<title>n30:e&#45;&gt;c56:w</title>
<path fill="none" stroke="black" d="M360.87,-392.5C396.32,-392.5 407.67,-392.5 438.6,-392.5"/>
<polygon fill="black" stroke="black" points="438.87,-396 448.87,-392.5 438.87,-389 438.87,-396"/>
</g>
<!-- n31 -->
<g id="node7" class="node">
<title>n31</title>
<polygon fill="none" stroke="black" points="1051.87,-387.04 1051.87,-401.96 1036.06,-412.5 1013.69,-412.5 997.87,-401.96 997.87,-387.04 1013.69,-376.5 1036.06,-376.5 1051.87,-387.04"/>
<text text-anchor="middle" x="1024.87" y="-390.8" font-family="Times,serif" font-size="14.00">O</text>
</g>
<!-- n32 -->
<g id="node8" class="node">
<title>n32</title>
<polygon fill="none" stroke="black" points="54.44,-366.04 54.44,-380.96 38.62,-391.5 16.25,-391.5 0.44,-380.96 0.44,-366.04 16.25,-355.5 38.62,-355.5 54.44,-366.04"/>
<text text-anchor="middle" x="27.44" y="-369.8" font-family="Times,serif" font-size="14.00">S</text>
</g>
<!-- n32&#45;&gt;c51 -->
<g id="edge47" class="edge">
<title>n32:e&#45;&gt;c51:w</title>
<path fill="none" stroke="black" d="M54.87,-373.5C107.37,-373.5 46.83,-155.6 84.31,-126.66"/>
<polygon fill="black" stroke="black" points="85.48,-129.96 93.87,-123.5 83.28,-123.32 85.48,-129.96"/>
</g>
<!-- c53 -->
<g id="node28" class="node">
<title>c53</title>
<polygon fill="none" stroke="black" points="90.87,-484.5 90.87,-522.5 230.87,-522.5 230.87,-484.5 90.87,-484.5"/>
<text text-anchor="middle" x="102.87" y="-499.8" font-family="Times,serif" font-size="14.00">A</text>
<polyline fill="none" stroke="black" points="114.87,-484.5 114.87,-522.5 "/>
<text text-anchor="middle" x="160.87" y="-507.3" font-family="Times,serif" font-size="14.00">$82_t_1_2</text>
<text text-anchor="middle" x="160.87" y="-492.3" font-family="Times,serif" font-size="14.00">$logic_not</text>
<polyline fill="none" stroke="black" points="206.87,-484.5 206.87,-522.5 "/>
<text text-anchor="middle" x="218.87" y="-499.8" font-family="Times,serif" font-size="14.00">Y</text>
</g>
<!-- n32&#45;&gt;c53 -->
<g id="edge48" class="edge">
<title>n32:e&#45;&gt;c53:w</title>
<path fill="none" stroke="black" d="M54.87,-373.5C110.84,-373.5 41.43,-486.81 80.75,-501.86"/>
<polygon fill="black" stroke="black" points="80.44,-505.35 90.87,-503.5 81.56,-498.44 80.44,-505.35"/>
</g>
<!-- n32&#45;&gt;c55 -->
<g id="edge49" class="edge">
<title>n32:e&#45;&gt;c55:w</title>
<path fill="none" stroke="black" d="M54.87,-373.5C75.84,-373.5 79.33,-391.3 94.84,-396.86"/>
<polygon fill="black" stroke="black" points="94.44,-400.34 104.87,-398.5 95.57,-393.43 94.44,-400.34"/>
</g>
<!-- c57 -->
<g id="node32" class="node">
<title>c57</title>
<polygon fill="none" stroke="black" points="105.87,-330.5 105.87,-368.5 215.87,-368.5 215.87,-330.5 105.87,-330.5"/>
<text text-anchor="middle" x="117.87" y="-345.8" font-family="Times,serif" font-size="14.00">A</text>
<polyline fill="none" stroke="black" points="129.87,-330.5 129.87,-368.5 "/>
<text text-anchor="middle" x="160.87" y="-353.3" font-family="Times,serif" font-size="14.00">$83</text>
<text text-anchor="middle" x="160.87" y="-338.3" font-family="Times,serif" font-size="14.00">$_NOT_</text>
<polyline fill="none" stroke="black" points="191.87,-330.5 191.87,-368.5 "/>
<text text-anchor="middle" x="203.87" y="-345.8" font-family="Times,serif" font-size="14.00">Y</text>
</g>
<!-- n32&#45;&gt;c57 -->
<g id="edge50" class="edge">
<title>n32:e&#45;&gt;c57:w</title>
<path fill="none" stroke="black" d="M54.87,-373.5C75.67,-373.5 79.42,-356.41 94.89,-351.07"/>
<polygon fill="black" stroke="black" points="95.54,-354.52 104.87,-349.5 94.45,-347.6 95.54,-354.52"/>
</g>
<!-- c34 -->
<g id="node9" class="node">
<title>c34</title>
<polygon fill="none" stroke="black" points="1466.87,-175.5 1466.87,-221.5 1598.87,-221.5 1598.87,-175.5 1466.87,-175.5"/>
<text text-anchor="middle" x="1478.87" y="-206.3" font-family="Times,serif" font-size="14.00">A</text>
<polyline fill="none" stroke="black" points="1466.87,-198.5 1490.87,-198.5 "/>
<text text-anchor="middle" x="1478.87" y="-183.3" font-family="Times,serif" font-size="14.00">B</text>
<polyline fill="none" stroke="black" points="1490.87,-175.5 1490.87,-221.5 "/>
<text text-anchor="middle" x="1532.87" y="-202.3" font-family="Times,serif" font-size="14.00">$85_t_1_7</text>
<text text-anchor="middle" x="1532.87" y="-187.3" font-family="Times,serif" font-size="14.00">$or</text>
<polyline fill="none" stroke="black" points="1574.87,-175.5 1574.87,-221.5 "/>
<text text-anchor="middle" x="1586.87" y="-194.8" font-family="Times,serif" font-size="14.00">Y</text>
</g>
<!-- c34&#45;&gt;n7 -->
<g id="edge54" class="edge">
<title>c34:e&#45;&gt;n7:w</title>
<path fill="none" stroke="black" d="M1598.87,-198.5C1610.87,-198.5 1616.12,-198.5 1624.75,-198.5"/>
<polygon fill="black" stroke="black" points="1624.87,-202 1634.87,-198.5 1624.87,-195 1624.87,-202"/>
</g>
<!-- c35 -->
<g id="node10" class="node">
<title>c35</title>
<polygon fill="none" stroke="black" points="1298.87,-204.5 1298.87,-250.5 1430.87,-250.5 1430.87,-204.5 1298.87,-204.5"/>
<text text-anchor="middle" x="1310.87" y="-235.3" font-family="Times,serif" font-size="14.00">A</text>
<polyline fill="none" stroke="black" points="1298.87,-227.5 1322.87,-227.5 "/>
<text text-anchor="middle" x="1310.87" y="-212.3" font-family="Times,serif" font-size="14.00">B</text>
<polyline fill="none" stroke="black" points="1322.87,-204.5 1322.87,-250.5 "/>
<text text-anchor="middle" x="1364.87" y="-231.3" font-family="Times,serif" font-size="14.00">$85_t_1_6</text>
<text text-anchor="middle" x="1364.87" y="-216.3" font-family="Times,serif" font-size="14.00">$or</text>
<polyline fill="none" stroke="black" points="1406.87,-204.5 1406.87,-250.5 "/>
<text text-anchor="middle" x="1418.87" y="-223.8" font-family="Times,serif" font-size="14.00">Y</text>
</g>
<!-- c35&#45;&gt;c34 -->
<g id="edge1" class="edge">
<title>c35:e&#45;&gt;c34:w</title>
<path fill="none" stroke="black" d="M1430.87,-227.5C1444.56,-227.5 1448.02,-217.33 1457.08,-212.72"/>
<polygon fill="black" stroke="black" points="1457.89,-216.13 1466.87,-210.5 1456.35,-209.3 1457.89,-216.13"/>
</g>
<!-- c36 -->
<g id="node11" class="node">
<title>c36</title>
<polygon fill="none" stroke="black" points="1130.87,-140.5 1130.87,-186.5 1262.87,-186.5 1262.87,-140.5 1130.87,-140.5"/>
<text text-anchor="middle" x="1142.87" y="-171.3" font-family="Times,serif" font-size="14.00">A</text>
<polyline fill="none" stroke="black" points="1130.87,-163.5 1154.87,-163.5 "/>
<text text-anchor="middle" x="1142.87" y="-148.3" font-family="Times,serif" font-size="14.00">B</text>
<polyline fill="none" stroke="black" points="1154.87,-140.5 1154.87,-186.5 "/>
<text text-anchor="middle" x="1196.87" y="-167.3" font-family="Times,serif" font-size="14.00">$85_t_1_5</text>
<text text-anchor="middle" x="1196.87" y="-152.3" font-family="Times,serif" font-size="14.00">$and</text>
<polyline fill="none" stroke="black" points="1238.87,-140.5 1238.87,-186.5 "/>
<text text-anchor="middle" x="1250.87" y="-159.8" font-family="Times,serif" font-size="14.00">Y</text>
</g>
<!-- c36&#45;&gt;c34 -->
<g id="edge17" class="edge">
<title>c36:e&#45;&gt;c34:w</title>
<path fill="none" stroke="black" d="M1262.87,-163.5C1350.64,-163.5 1373.89,-184.78 1456.74,-186.4"/>
<polygon fill="black" stroke="black" points="1456.84,-189.9 1466.87,-186.5 1456.91,-182.9 1456.84,-189.9"/>
</g>
<!-- c37 -->
<g id="node12" class="node">
<title>c37</title>
<polygon fill="none" stroke="black" points="958.87,-191.5 958.87,-237.5 1090.87,-237.5 1090.87,-191.5 958.87,-191.5"/>
<text text-anchor="middle" x="970.87" y="-222.3" font-family="Times,serif" font-size="14.00">A</text>
<polyline fill="none" stroke="black" points="958.87,-214.5 982.87,-214.5 "/>
<text text-anchor="middle" x="970.87" y="-199.3" font-family="Times,serif" font-size="14.00">B</text>
<polyline fill="none" stroke="black" points="982.87,-191.5 982.87,-237.5 "/>
<text text-anchor="middle" x="1024.87" y="-218.3" font-family="Times,serif" font-size="14.00">$85_t_1_4</text>
<text text-anchor="middle" x="1024.87" y="-203.3" font-family="Times,serif" font-size="14.00">$and</text>
<polyline fill="none" stroke="black" points="1066.87,-191.5 1066.87,-237.5 "/>
<text text-anchor="middle" x="1078.87" y="-210.8" font-family="Times,serif" font-size="14.00">Y</text>
</g>
<!-- c37&#45;&gt;c35 -->
<g id="edge42" class="edge">
<title>c37:e&#45;&gt;c35:w</title>
<path fill="none" stroke="black" d="M1091.87,-214.5C1180.37,-214.5 1205.02,-215.43 1288.65,-215.5"/>
<polygon fill="black" stroke="black" points="1288.87,-219 1298.87,-215.5 1288.87,-212 1288.87,-219"/>
</g>
<!-- c38 -->
<g id="node13" class="node">
<title>c38</title>
<polygon fill="none" stroke="black" points="1130.87,-246.5 1130.87,-292.5 1262.87,-292.5 1262.87,-246.5 1130.87,-246.5"/>
<text text-anchor="middle" x="1142.87" y="-277.3" font-family="Times,serif" font-size="14.00">A</text>
<polyline fill="none" stroke="black" points="1130.87,-269.5 1154.87,-269.5 "/>
<text text-anchor="middle" x="1142.87" y="-254.3" font-family="Times,serif" font-size="14.00">B</text>
<polyline fill="none" stroke="black" points="1154.87,-246.5 1154.87,-292.5 "/>
<text text-anchor="middle" x="1196.87" y="-273.3" font-family="Times,serif" font-size="14.00">$85_t_1_3</text>
<text text-anchor="middle" x="1196.87" y="-258.3" font-family="Times,serif" font-size="14.00">$and</text>
<polyline fill="none" stroke="black" points="1238.87,-246.5 1238.87,-292.5 "/>
<text text-anchor="middle" x="1250.87" y="-265.8" font-family="Times,serif" font-size="14.00">Y</text>
</g>
<!-- c38&#45;&gt;c35 -->
<g id="edge51" class="edge">
<title>c38:e&#45;&gt;c35:w</title>
<path fill="none" stroke="black" d="M1262.87,-269.5C1279.63,-269.5 1279.24,-250.07 1289.3,-242.49"/>
<polygon fill="black" stroke="black" points="1290.37,-245.82 1298.87,-239.5 1288.28,-239.14 1290.37,-245.82"/>
</g>
<!-- c39 -->
<g id="node14" class="node">
<title>c39</title>
<polygon fill="none" stroke="black" points="778.87,-296.5 778.87,-334.5 918.87,-334.5 918.87,-296.5 778.87,-296.5"/>
<text text-anchor="middle" x="790.87" y="-311.8" font-family="Times,serif" font-size="14.00">A</text>
<polyline fill="none" stroke="black" points="802.87,-296.5 802.87,-334.5 "/>
<text text-anchor="middle" x="848.87" y="-319.3" font-family="Times,serif" font-size="14.00">$85_t_1_2</text>
<text text-anchor="middle" x="848.87" y="-304.3" font-family="Times,serif" font-size="14.00">$logic_not</text>
<polyline fill="none" stroke="black" points="894.87,-296.5 894.87,-334.5 "/>
<text text-anchor="middle" x="906.87" y="-311.8" font-family="Times,serif" font-size="14.00">Y</text>
</g>
<!-- c39&#45;&gt;c37 -->
<g id="edge52" class="edge">
<title>c39:e&#45;&gt;c37:w</title>
<path fill="none" stroke="black" d="M918.87,-315.5C958.01,-315.5 922.77,-242.41 947.96,-228.7"/>
<polygon fill="black" stroke="black" points="948.87,-232.08 957.87,-226.5 947.35,-225.25 948.87,-232.08"/>
</g>
<!-- c40 -->
<g id="node15" class="node">
<title>c40</title>
<polygon fill="none" stroke="black" points="954.87,-436.5 954.87,-474.5 1094.87,-474.5 1094.87,-436.5 954.87,-436.5"/>
<text text-anchor="middle" x="966.87" y="-451.8" font-family="Times,serif" font-size="14.00">A</text>
<polyline fill="none" stroke="black" points="978.87,-436.5 978.87,-474.5 "/>
<text text-anchor="middle" x="1024.87" y="-459.3" font-family="Times,serif" font-size="14.00">$85_t_1_1</text>
<text text-anchor="middle" x="1024.87" y="-444.3" font-family="Times,serif" font-size="14.00">$logic_not</text>
<polyline fill="none" stroke="black" points="1070.87,-436.5 1070.87,-474.5 "/>
<text text-anchor="middle" x="1082.87" y="-451.8" font-family="Times,serif" font-size="14.00">Y</text>
</g>
<!-- c40&#45;&gt;c38 -->
<g id="edge53" class="edge">
<title>c40:e&#45;&gt;c38:w</title>
<path fill="none" stroke="black" d="M1094.87,-455.5C1169.99,-455.5 1063.33,-298.08 1120.69,-282.7"/>
<polygon fill="black" stroke="black" points="1121.35,-286.15 1130.87,-281.5 1120.53,-279.2 1121.35,-286.15"/>
</g>
<!-- c41 -->
<g id="node16" class="node">
<title>c41</title>
<polygon fill="none" stroke="black" points="782.87,-199.5 782.87,-245.5 914.87,-245.5 914.87,-199.5 782.87,-199.5"/>
<text text-anchor="middle" x="794.87" y="-230.3" font-family="Times,serif" font-size="14.00">A</text>
<polyline fill="none" stroke="black" points="782.87,-222.5 806.87,-222.5 "/>
<text text-anchor="middle" x="794.87" y="-207.3" font-family="Times,serif" font-size="14.00">B</text>
<polyline fill="none" stroke="black" points="806.87,-199.5 806.87,-245.5 "/>
<text text-anchor="middle" x="848.87" y="-226.3" font-family="Times,serif" font-size="14.00">$84_t_1_7</text>
<text text-anchor="middle" x="848.87" y="-211.3" font-family="Times,serif" font-size="14.00">$or</text>
<polyline fill="none" stroke="black" points="890.87,-199.5 890.87,-245.5 "/>
<text text-anchor="middle" x="902.87" y="-218.8" font-family="Times,serif" font-size="14.00">Y</text>
</g>
<!-- n14 -->
<g id="node37" class="node">
<title>n14</title>
<ellipse fill="black" stroke="black" cx="1024.87" cy="-257.5" rx="1.8" ry="1.8"/>
</g>
<!-- c41&#45;&gt;n14 -->
<g id="edge6" class="edge">
<title>c41:e&#45;&gt;n14:w</title>
<path fill="none" stroke="black" d="M915.87,-222.5C936.22,-222.5 935.8,-239.38 954.87,-246.5 979.72,-255.77 989.34,-257.24 1011.79,-257.46"/>
<polygon fill="black" stroke="black" points="1011.86,-260.96 1021.87,-257.5 1011.89,-253.96 1011.86,-260.96"/>
</g>
<!-- c42 -->
<g id="node17" class="node">
<title>c42</title>
<polygon fill="none" stroke="black" points="610.87,-211.5 610.87,-257.5 742.87,-257.5 742.87,-211.5 610.87,-211.5"/>
<text text-anchor="middle" x="622.87" y="-242.3" font-family="Times,serif" font-size="14.00">A</text>
<polyline fill="none" stroke="black" points="610.87,-234.5 634.87,-234.5 "/>
<text text-anchor="middle" x="622.87" y="-219.3" font-family="Times,serif" font-size="14.00">B</text>
<polyline fill="none" stroke="black" points="634.87,-211.5 634.87,-257.5 "/>
<text text-anchor="middle" x="676.87" y="-238.3" font-family="Times,serif" font-size="14.00">$84_t_1_6</text>
<text text-anchor="middle" x="676.87" y="-223.3" font-family="Times,serif" font-size="14.00">$or</text>
<polyline fill="none" stroke="black" points="718.87,-211.5 718.87,-257.5 "/>
<text text-anchor="middle" x="730.87" y="-230.8" font-family="Times,serif" font-size="14.00">Y</text>
</g>
<!-- c42&#45;&gt;c41 -->
<g id="edge55" class="edge">
<title>c42:e&#45;&gt;c41:w</title>
<path fill="none" stroke="black" d="M742.87,-234.5C756.28,-234.5 761.91,-234.5 771.79,-234.5"/>
<polygon fill="black" stroke="black" points="771.87,-238 781.87,-234.5 771.87,-231 771.87,-238"/>
</g>
<!-- c43&#45;&gt;c41 -->
<g id="edge56" class="edge">
<title>c43:e&#45;&gt;c41:w</title>
<path fill="none" stroke="black" d="M571.87,-128.5C618.84,-128.5 718.28,-200.57 771.81,-209.58"/>
<polygon fill="black" stroke="black" points="771.6,-213.07 781.87,-210.5 772.23,-206.1 771.6,-213.07"/>
</g>
<!-- c44&#45;&gt;c42 -->
<g id="edge2" class="edge">
<title>c44:e&#45;&gt;c42:w</title>
<path fill="none" stroke="black" d="M571.87,-193.5C589.42,-193.5 589.94,-212.64 601.1,-219.82"/>
<polygon fill="black" stroke="black" points="600.3,-223.23 610.87,-222.5 602.15,-216.48 600.3,-223.23"/>
</g>
<!-- c45&#45;&gt;c42 -->
<g id="edge3" class="edge">
<title>c45:e&#45;&gt;c42:w</title>
<path fill="none" stroke="black" d="M571.87,-258.5C586.04,-258.5 590.81,-251.18 600.86,-247.97"/>
<polygon fill="black" stroke="black" points="601.49,-251.42 610.87,-246.5 600.47,-244.49 601.49,-251.42"/>
</g>
<!-- c46 -->
<g id="node21" class="node">
<title>c46</title>
<polygon fill="none" stroke="black" points="434.87,-300.5 434.87,-338.5 574.87,-338.5 574.87,-300.5 434.87,-300.5"/>
<text text-anchor="middle" x="446.87" y="-315.8" font-family="Times,serif" font-size="14.00">A</text>
<polyline fill="none" stroke="black" points="458.87,-300.5 458.87,-338.5 "/>
<text text-anchor="middle" x="504.87" y="-323.3" font-family="Times,serif" font-size="14.00">$84_t_1_2</text>
<text text-anchor="middle" x="504.87" y="-308.3" font-family="Times,serif" font-size="14.00">$logic_not</text>
<polyline fill="none" stroke="black" points="550.87,-300.5 550.87,-338.5 "/>
<text text-anchor="middle" x="562.87" y="-315.8" font-family="Times,serif" font-size="14.00">Y</text>
</g>
<!-- n12 -->
<g id="node35" class="node">
<title>n12</title>
<polygon fill="none" stroke="black" points="676.87,-337.5 641.18,-319.5 676.87,-301.5 712.57,-319.5 676.87,-337.5"/>
<text text-anchor="middle" x="676.87" y="-315.8" font-family="Times,serif" font-size="14.00">$93</text>
</g>
<!-- c46&#45;&gt;n12 -->
<g id="edge4" class="edge">
<title>c46:e&#45;&gt;n12:w</title>
<path fill="none" stroke="black" d="M574.87,-319.5C600.04,-319.5 608.76,-319.5 629.69,-319.5"/>
<polygon fill="black" stroke="black" points="629.87,-323 639.87,-319.5 629.87,-316 629.87,-323"/>
</g>
<!-- n13 -->
<g id="node36" class="node">
<title>n13</title>
<polygon fill="none" stroke="black" points="676.87,-447.5 641.18,-429.5 676.87,-411.5 712.57,-429.5 676.87,-447.5"/>
<text text-anchor="middle" x="676.87" y="-425.8" font-family="Times,serif" font-size="14.00">$92</text>
</g>
<!-- c47&#45;&gt;n13 -->
<g id="edge5" class="edge">
<title>c47:e&#45;&gt;n13:w</title>
<path fill="none" stroke="black" d="M574.87,-441.5C600.58,-441.5 608.57,-432.31 629.85,-430.02"/>
<polygon fill="black" stroke="black" points="630.07,-433.51 639.87,-429.5 629.71,-426.52 630.07,-433.51"/>
</g>
<!-- c48 -->
<g id="node23" class="node">
<title>c48</title>
<polygon fill="none" stroke="black" points="438.87,-40.5 438.87,-86.5 570.87,-86.5 570.87,-40.5 438.87,-40.5"/>
<text text-anchor="middle" x="450.87" y="-71.3" font-family="Times,serif" font-size="14.00">A</text>
<polyline fill="none" stroke="black" points="438.87,-63.5 462.87,-63.5 "/>
<text text-anchor="middle" x="450.87" y="-48.3" font-family="Times,serif" font-size="14.00">B</text>
<polyline fill="none" stroke="black" points="462.87,-40.5 462.87,-86.5 "/>
<text text-anchor="middle" x="504.87" y="-67.3" font-family="Times,serif" font-size="14.00">$82_t_1_7</text>
<text text-anchor="middle" x="504.87" y="-52.3" font-family="Times,serif" font-size="14.00">$or</text>
<polyline fill="none" stroke="black" points="546.87,-40.5 546.87,-86.5 "/>
<text text-anchor="middle" x="558.87" y="-59.8" font-family="Times,serif" font-size="14.00">Y</text>
</g>
<!-- n23 -->
<g id="node41" class="node">
<title>n23</title>
<ellipse fill="black" stroke="black" cx="848.87" cy="-162.5" rx="1.8" ry="1.8"/>
</g>
<!-- c48&#45;&gt;n23 -->
<g id="edge21" class="edge">
<title>c48:e&#45;&gt;n23:w</title>
<path fill="none" stroke="black" d="M571.87,-63.5C697.94,-63.5 715.52,-157.35 835.86,-162.3"/>
<polygon fill="black" stroke="black" points="835.8,-165.8 845.87,-162.5 835.95,-158.8 835.8,-165.8"/>
</g>
<!-- c49 -->
<g id="node24" class="node">
<title>c49</title>
<polygon fill="none" stroke="black" points="266.87,-98.5 266.87,-144.5 398.87,-144.5 398.87,-98.5 266.87,-98.5"/>
<text text-anchor="middle" x="278.87" y="-129.3" font-family="Times,serif" font-size="14.00">A</text>
<polyline fill="none" stroke="black" points="266.87,-121.5 290.87,-121.5 "/>
<text text-anchor="middle" x="278.87" y="-106.3" font-family="Times,serif" font-size="14.00">B</text>
<polyline fill="none" stroke="black" points="290.87,-98.5 290.87,-144.5 "/>
<text text-anchor="middle" x="332.87" y="-125.3" font-family="Times,serif" font-size="14.00">$82_t_1_6</text>
<text text-anchor="middle" x="332.87" y="-110.3" font-family="Times,serif" font-size="14.00">$or</text>
<polyline fill="none" stroke="black" points="374.87,-98.5 374.87,-144.5 "/>
<text text-anchor="middle" x="386.87" y="-117.8" font-family="Times,serif" font-size="14.00">Y</text>
</g>
<!-- c49&#45;&gt;c48 -->
<g id="edge14" class="edge">
<title>c49:e&#45;&gt;c48:w</title>
<path fill="none" stroke="black" d="M398.87,-121.5C421.49,-121.5 414.62,-88.75 428.03,-78.52"/>
<polygon fill="black" stroke="black" points="429.34,-81.78 437.87,-75.5 427.29,-75.08 429.34,-81.78"/>
</g>
<!-- c50&#45;&gt;c48 -->
<g id="edge15" class="edge">
<title>c50:e&#45;&gt;c48:w</title>
<path fill="none" stroke="black" d="M227.87,-46.5C317.77,-46.5 342.69,-51.14 427.76,-51.48"/>
<polygon fill="black" stroke="black" points="427.87,-54.98 437.87,-51.5 427.88,-47.98 427.87,-54.98"/>
</g>
<!-- c51&#45;&gt;c49 -->
<g id="edge16" class="edge">
<title>c51:e&#45;&gt;c49:w</title>
<path fill="none" stroke="black" d="M227.87,-111.5C241.3,-111.5 246.9,-110.3 256.78,-109.76"/>
<polygon fill="black" stroke="black" points="256.97,-113.26 266.87,-109.5 256.79,-106.26 256.97,-113.26"/>
</g>
<!-- c52&#45;&gt;c49 -->
<g id="edge18" class="edge">
<title>c52:e&#45;&gt;c49:w</title>
<path fill="none" stroke="black" d="M227.87,-176.5C249.44,-176.5 244.17,-146.45 256.94,-136.59"/>
<polygon fill="black" stroke="black" points="258.36,-139.81 266.87,-133.5 256.28,-133.13 258.36,-139.81"/>
</g>
<!-- n21 -->
<g id="node39" class="node">
<title>n21</title>
<polygon fill="none" stroke="black" points="332.87,-553.5 297.18,-535.5 332.87,-517.5 368.57,-535.5 332.87,-553.5"/>
<text text-anchor="middle" x="332.87" y="-531.8" font-family="Times,serif" font-size="14.00">$87</text>
</g>
<!-- c53&#45;&gt;n21 -->
<g id="edge19" class="edge">
<title>c53:e&#45;&gt;n21:w</title>
<path fill="none" stroke="black" d="M230.87,-503.5C259.3,-503.5 263.1,-528.44 285.75,-534.28"/>
<polygon fill="black" stroke="black" points="285.53,-537.78 295.87,-535.5 286.36,-530.83 285.53,-537.78"/>
</g>
<!-- n22 -->
<g id="node40" class="node">
<title>n22</title>
<polygon fill="none" stroke="black" points="332.87,-310.5 297.18,-292.5 332.87,-274.5 368.57,-292.5 332.87,-310.5"/>
<text text-anchor="middle" x="332.87" y="-288.8" font-family="Times,serif" font-size="14.00">$86</text>
</g>
<!-- c54&#45;&gt;n22 -->
<g id="edge20" class="edge">
<title>c54:e&#45;&gt;n22:w</title>
<path fill="none" stroke="black" d="M230.87,-292.5C256.04,-292.5 264.76,-292.5 285.69,-292.5"/>
<polygon fill="black" stroke="black" points="285.87,-296 295.87,-292.5 285.87,-289 285.87,-296"/>
</g>
<!-- n26 -->
<g id="node42" class="node">
<title>n26</title>
<ellipse fill="black" stroke="black" cx="676.87" cy="-467.5" rx="1.8" ry="1.8"/>
</g>
<!-- c55&#45;&gt;n26 -->
<g id="edge29" class="edge">
<title>c55:e&#45;&gt;n26:w</title>
<path fill="none" stroke="black" d="M216.87,-410.5C242,-410.5 409.98,-467.14 434.87,-470.5 536.75,-484.26 565.79,-468.58 663.84,-467.55"/>
<polygon fill="black" stroke="black" points="663.89,-471.05 673.87,-467.5 663.85,-464.05 663.89,-471.05"/>
</g>
<!-- n27 -->
<g id="node43" class="node">
<title>n27</title>
<ellipse fill="black" stroke="black" cx="676.87" cy="-380.5" rx="1.8" ry="1.8"/>
</g>
<!-- c56&#45;&gt;n27 -->
<g id="edge32" class="edge">
<title>c56:e&#45;&gt;n27:w</title>
<path fill="none" stroke="black" d="M560.87,-380.5C607.56,-380.5 621.7,-380.5 663.81,-380.5"/>
<polygon fill="black" stroke="black" points="663.87,-384 673.87,-380.5 663.87,-377 663.87,-384"/>
</g>
<!-- n28 -->
<g id="node44" class="node">
<title>n28</title>
<ellipse fill="black" stroke="black" cx="332.87" cy="-340.5" rx="1.8" ry="1.8"/>
</g>
<!-- c57&#45;&gt;n28 -->
<g id="edge35" class="edge">
<title>c57:e&#45;&gt;n28:w</title>
<path fill="none" stroke="black" d="M216.87,-349.5C263.71,-349.5 277.58,-341.72 319.78,-340.63"/>
<polygon fill="black" stroke="black" points="319.92,-344.13 329.87,-340.5 319.83,-337.13 319.92,-344.13"/>
</g>
<!-- c58 -->
<g id="node33" class="node">
<title>c58</title>
<polygon fill="none" stroke="black" points="797.87,-371.5 797.87,-417.5 899.87,-417.5 899.87,-371.5 797.87,-371.5"/>
<text text-anchor="middle" x="809.87" y="-402.3" font-family="Times,serif" font-size="14.00">A</text>
<polyline fill="none" stroke="black" points="797.87,-394.5 821.87,-394.5 "/>
<text text-anchor="middle" x="809.87" y="-379.3" font-family="Times,serif" font-size="14.00">B</text>
<polyline fill="none" stroke="black" points="821.87,-371.5 821.87,-417.5 "/>
<text text-anchor="middle" x="848.87" y="-398.3" font-family="Times,serif" font-size="14.00">$85</text>
<text text-anchor="middle" x="848.87" y="-383.3" font-family="Times,serif" font-size="14.00">$_OR_</text>
<polyline fill="none" stroke="black" points="875.87,-371.5 875.87,-417.5 "/>
<text text-anchor="middle" x="887.87" y="-390.8" font-family="Times,serif" font-size="14.00">Y</text>
</g>
<!-- c58&#45;&gt;n31 -->
<g id="edge46" class="edge">
<title>c58:e&#45;&gt;n31:w</title>
<path fill="none" stroke="black" d="M900.87,-394.5C939.87,-394.5 952.14,-394.5 986.54,-394.5"/>
<polygon fill="black" stroke="black" points="986.87,-398 996.87,-394.5 986.87,-391 986.87,-398"/>
</g>
<!-- n15 -->
<g id="node38" class="node">
<title>n15</title>
<ellipse fill="black" stroke="black" cx="332.87" cy="-236.5" rx="1.8" ry="1.8"/>
</g>
<!-- x0&#45;&gt;n15 -->
<g id="edge9" class="edge">
<title>x0:e&#45;&gt;n15:w</title>
<path fill="none" stroke="black" d="M188.87,-236.5C247.99,-236.5 265.28,-236.5 319.66,-236.5"/>
<polygon fill="black" stroke="black" points="319.87,-240 329.87,-236.5 319.87,-233 319.87,-240"/>
</g>
<!-- n14&#45;&gt;c36 -->
<g id="edge7" class="edge">
<title>n14:e&#45;&gt;c36:w</title>
<path fill="none" stroke="black" d="M1027.87,-257.5C1058.05,-257.5 1071.52,-265.61 1094.87,-246.5 1126.68,-220.48 1093.01,-163.13 1120.74,-153.03"/>
<polygon fill="black" stroke="black" points="1121.51,-156.46 1130.87,-151.5 1120.46,-149.54 1121.51,-156.46"/>
</g>
<!-- n14&#45;&gt;c38 -->
<g id="edge8" class="edge">
<title>n14:e&#45;&gt;c38:w</title>
<path fill="none" stroke="black" d="M1027.87,-257.5C1070.07,-257.5 1083.1,-257.5 1120.74,-257.5"/>
<polygon fill="black" stroke="black" points="1120.87,-261 1130.87,-257.5 1120.87,-254 1120.87,-261"/>
</g>
<!-- n15&#45;&gt;c43 -->
<g id="edge10" class="edge">
<title>n15:e&#45;&gt;c43:w</title>
<path fill="none" stroke="black" d="M335.87,-236.5C366.51,-236.5 377.39,-230.35 398.87,-208.5 427.21,-179.67 399.48,-127.11 427.75,-117.9"/>
<polygon fill="black" stroke="black" points="428.44,-121.33 437.87,-116.5 427.49,-114.4 428.44,-121.33"/>
</g>
<!-- n15&#45;&gt;c45 -->
<g id="edge11" class="edge">
<title>n15:e&#45;&gt;c45:w</title>
<path fill="none" stroke="black" d="M335.87,-236.5C377.86,-236.5 390.41,-245 427.8,-246.33"/>
<polygon fill="black" stroke="black" points="427.81,-249.83 437.87,-246.5 427.93,-242.83 427.81,-249.83"/>
</g>
<!-- n23&#45;&gt;c36 -->
<g id="edge22" class="edge">
<title>n23:e&#45;&gt;c36:w</title>
<path fill="none" stroke="black" d="M851.87,-162.5C972.49,-162.5 1004.92,-174.77 1120.55,-175.47"/>
<polygon fill="black" stroke="black" points="1120.86,-178.97 1130.87,-175.5 1120.88,-171.97 1120.86,-178.97"/>
</g>
<!-- n23&#45;&gt;c37 -->
<g id="edge23" class="edge">
<title>n23:e&#45;&gt;c37:w</title>
<path fill="none" stroke="black" d="M851.87,-162.5C874.1,-162.5 920.07,-193.67 947.86,-200.98"/>
<polygon fill="black" stroke="black" points="947.46,-204.46 957.87,-202.5 948.51,-197.54 947.46,-204.46"/>
</g>
<!-- n26&#45;&gt;c40 -->
<g id="edge30" class="edge">
<title>n26:e&#45;&gt;c40:w</title>
<path fill="none" stroke="black" d="M679.87,-467.5C798.75,-467.5 830.74,-456.17 944.7,-455.53"/>
<polygon fill="black" stroke="black" points="944.88,-459.03 954.87,-455.5 944.86,-452.03 944.88,-459.03"/>
</g>
<!-- n26&#45;&gt;c58 -->
<g id="edge31" class="edge">
<title>n26:e&#45;&gt;c58:w</title>
<path fill="none" stroke="black" d="M679.87,-467.5C708.3,-467.5 717.4,-469.12 742.87,-456.5 768.75,-443.68 765.53,-414.53 786.93,-407.87"/>
<polygon fill="black" stroke="black" points="787.44,-411.33 796.87,-406.5 786.49,-404.4 787.44,-411.33"/>
</g>
<!-- n27&#45;&gt;c39 -->
<g id="edge33" class="edge">
<title>n27:e&#45;&gt;c39:w</title>
<path fill="none" stroke="black" d="M679.87,-380.5C711.69,-380.5 716.66,-364.54 742.87,-346.5 756.87,-336.87 757.98,-322.66 768.88,-317.48"/>
<polygon fill="black" stroke="black" points="769.75,-320.88 778.87,-315.5 768.38,-314.01 769.75,-320.88"/>
</g>
<!-- n27&#45;&gt;c58 -->
<g id="edge34" class="edge">
<title>n27:e&#45;&gt;c58:w</title>
<path fill="none" stroke="black" d="M679.87,-380.5C728.32,-380.5 742.91,-382.24 786.73,-382.47"/>
<polygon fill="black" stroke="black" points="786.86,-385.97 796.87,-382.5 786.88,-378.97 786.86,-385.97"/>
</g>
<!-- n28&#45;&gt;c44 -->
<g id="edge36" class="edge">
<title>n28:e&#45;&gt;c44:w</title>
<path fill="none" stroke="black" d="M335.87,-340.5C365.39,-340.5 377.92,-340.29 398.87,-319.5 434.07,-284.58 391.63,-216.61 427.62,-206.71"/>
<polygon fill="black" stroke="black" points="428.35,-210.15 437.87,-205.5 427.53,-203.2 428.35,-210.15"/>
</g>
<!-- n28&#45;&gt;c46 -->
<g id="edge37" class="edge">
<title>n28:e&#45;&gt;c46:w</title>
<path fill="none" stroke="black" d="M335.87,-340.5C377.16,-340.5 388.17,-322.8 424.49,-319.9"/>
<polygon fill="black" stroke="black" points="425.01,-323.38 434.87,-319.5 424.74,-316.39 425.01,-323.38"/>
</g>
<!-- n28&#45;&gt;c56 -->
<g id="edge38" class="edge">
<title>n28:e&#45;&gt;c56:w</title>
<path fill="none" stroke="black" d="M335.87,-340.5C384.08,-340.5 395.63,-364.8 438.83,-368.13"/>
<polygon fill="black" stroke="black" points="438.75,-371.62 448.87,-368.5 439.01,-364.63 438.75,-371.62"/>
</g>
</g>
</svg>
